<mxfile host="app.diagrams.net" agent="Mozilla/5.0 (Windows NT 10.0; Win64; x64) AppleWebKit/537.36 (KHTML, like Gecko) Chrome/130.0.0.0 Safari/537.36" version="24.7.17">
  <diagram name="Página-1" id="1vUa75C7YkgU3C7qSWO-">
    <mxGraphModel dx="1434" dy="780" grid="1" gridSize="10" guides="1" tooltips="1" connect="1" arrows="1" fold="1" page="1" pageScale="1" pageWidth="827" pageHeight="1169" math="0" shadow="0">
      <root>
        <mxCell id="0" />
        <mxCell id="1" parent="0" />
        <mxCell id="KGJQ8TFh_59FOnOlg2Y--1" value="Projeto: TechMan&lt;div&gt;MER DER Conceitual&lt;/div&gt;" style="text;html=1;align=center;verticalAlign=middle;whiteSpace=wrap;rounded=0;" vertex="1" parent="1">
          <mxGeometry x="338" y="40" width="150" height="40" as="geometry" />
        </mxCell>
        <mxCell id="KGJQ8TFh_59FOnOlg2Y--2" value="Equipamento" style="whiteSpace=wrap;html=1;align=center;fillColor=#fff2cc;strokeColor=#d6b656;" vertex="1" parent="1">
          <mxGeometry x="552" y="342.5" width="100" height="40" as="geometry" />
        </mxCell>
        <mxCell id="KGJQ8TFh_59FOnOlg2Y--3" value="Usuário" style="whiteSpace=wrap;html=1;align=center;fillColor=#fff2cc;strokeColor=#d6b656;" vertex="1" parent="1">
          <mxGeometry x="552" y="170" width="100" height="40" as="geometry" />
        </mxCell>
        <mxCell id="KGJQ8TFh_59FOnOlg2Y--4" value="Perfil" style="whiteSpace=wrap;html=1;align=center;fillColor=#fff2cc;strokeColor=#d6b656;" vertex="1" parent="1">
          <mxGeometry x="170" y="170" width="100" height="40" as="geometry" />
        </mxCell>
        <mxCell id="KGJQ8TFh_59FOnOlg2Y--5" value="Comentario" style="whiteSpace=wrap;html=1;align=center;fillColor=#fff2cc;strokeColor=#d6b656;" vertex="1" parent="1">
          <mxGeometry x="170" y="340" width="100" height="40" as="geometry" />
        </mxCell>
        <mxCell id="KGJQ8TFh_59FOnOlg2Y--6" value="id" style="ellipse;whiteSpace=wrap;html=1;align=center;fontStyle=4;fillColor=#dae8fc;strokeColor=#6c8ebf;" vertex="1" parent="1">
          <mxGeometry x="502" y="120" width="80" height="30" as="geometry" />
        </mxCell>
        <mxCell id="KGJQ8TFh_59FOnOlg2Y--7" value="senha" style="ellipse;whiteSpace=wrap;html=1;align=center;fillColor=#ffe6cc;strokeColor=#d79b00;" vertex="1" parent="1">
          <mxGeometry x="562" y="80" width="80" height="30" as="geometry" />
        </mxCell>
        <mxCell id="KGJQ8TFh_59FOnOlg2Y--8" value="nome" style="ellipse;whiteSpace=wrap;html=1;align=center;fillColor=#ffe6cc;strokeColor=#d79b00;" vertex="1" parent="1">
          <mxGeometry x="240" y="110" width="80" height="30" as="geometry" />
        </mxCell>
        <mxCell id="KGJQ8TFh_59FOnOlg2Y--13" style="rounded=0;orthogonalLoop=1;jettySize=auto;html=1;exitX=0.5;exitY=1;exitDx=0;exitDy=0;entryX=0.5;entryY=0;entryDx=0;entryDy=0;endArrow=none;endFill=0;" edge="1" parent="1" source="KGJQ8TFh_59FOnOlg2Y--9" target="KGJQ8TFh_59FOnOlg2Y--4">
          <mxGeometry relative="1" as="geometry" />
        </mxCell>
        <mxCell id="KGJQ8TFh_59FOnOlg2Y--9" value="id" style="ellipse;whiteSpace=wrap;html=1;align=center;fontStyle=4;fillColor=#dae8fc;strokeColor=#6c8ebf;" vertex="1" parent="1">
          <mxGeometry x="120" y="110" width="80" height="30" as="geometry" />
        </mxCell>
        <mxCell id="KGJQ8TFh_59FOnOlg2Y--11" value="&lt;span style=&quot;border-bottom: 1px dotted&quot;&gt;perfil&lt;/span&gt;" style="ellipse;whiteSpace=wrap;html=1;align=center;fillColor=#d5e8d4;strokeColor=#82b366;" vertex="1" parent="1">
          <mxGeometry x="622" y="120" width="80" height="30" as="geometry" />
        </mxCell>
        <mxCell id="KGJQ8TFh_59FOnOlg2Y--14" style="rounded=0;orthogonalLoop=1;jettySize=auto;html=1;exitX=0.5;exitY=1;exitDx=0;exitDy=0;entryX=0.5;entryY=0;entryDx=0;entryDy=0;endArrow=none;endFill=0;" edge="1" parent="1" source="KGJQ8TFh_59FOnOlg2Y--8" target="KGJQ8TFh_59FOnOlg2Y--4">
          <mxGeometry relative="1" as="geometry" />
        </mxCell>
        <mxCell id="KGJQ8TFh_59FOnOlg2Y--15" style="rounded=0;orthogonalLoop=1;jettySize=auto;html=1;exitX=0.5;exitY=1;exitDx=0;exitDy=0;entryX=0.5;entryY=0;entryDx=0;entryDy=0;endArrow=none;endFill=0;" edge="1" parent="1" source="KGJQ8TFh_59FOnOlg2Y--6" target="KGJQ8TFh_59FOnOlg2Y--3">
          <mxGeometry relative="1" as="geometry" />
        </mxCell>
        <mxCell id="KGJQ8TFh_59FOnOlg2Y--16" style="rounded=0;orthogonalLoop=1;jettySize=auto;html=1;exitX=0.5;exitY=1;exitDx=0;exitDy=0;entryX=0.5;entryY=0;entryDx=0;entryDy=0;endArrow=none;endFill=0;" edge="1" parent="1" source="KGJQ8TFh_59FOnOlg2Y--7" target="KGJQ8TFh_59FOnOlg2Y--3">
          <mxGeometry relative="1" as="geometry" />
        </mxCell>
        <mxCell id="KGJQ8TFh_59FOnOlg2Y--17" style="rounded=0;orthogonalLoop=1;jettySize=auto;html=1;exitX=0.5;exitY=1;exitDx=0;exitDy=0;entryX=0.5;entryY=0;entryDx=0;entryDy=0;endArrow=none;endFill=0;" edge="1" parent="1" source="KGJQ8TFh_59FOnOlg2Y--11" target="KGJQ8TFh_59FOnOlg2Y--3">
          <mxGeometry relative="1" as="geometry" />
        </mxCell>
        <mxCell id="KGJQ8TFh_59FOnOlg2Y--18" value="id" style="ellipse;whiteSpace=wrap;html=1;align=center;fontStyle=4;fillColor=#dae8fc;strokeColor=#6c8ebf;" vertex="1" parent="1">
          <mxGeometry x="110" y="410" width="80" height="30" as="geometry" />
        </mxCell>
        <mxCell id="KGJQ8TFh_59FOnOlg2Y--19" value="comentario" style="ellipse;whiteSpace=wrap;html=1;align=center;fillColor=#ffe6cc;strokeColor=#d79b00;" vertex="1" parent="1">
          <mxGeometry x="140" y="440" width="80" height="30" as="geometry" />
        </mxCell>
        <mxCell id="KGJQ8TFh_59FOnOlg2Y--20" value="&lt;span style=&quot;border-bottom: 1px dotted&quot;&gt;perfil&lt;/span&gt;" style="ellipse;whiteSpace=wrap;html=1;align=center;fillColor=#d5e8d4;strokeColor=#82b366;" vertex="1" parent="1">
          <mxGeometry x="240" y="440" width="60" height="30" as="geometry" />
        </mxCell>
        <mxCell id="KGJQ8TFh_59FOnOlg2Y--21" style="rounded=0;orthogonalLoop=1;jettySize=auto;html=1;exitX=0.5;exitY=0;exitDx=0;exitDy=0;entryX=0.5;entryY=1;entryDx=0;entryDy=0;endArrow=none;endFill=0;" edge="1" source="KGJQ8TFh_59FOnOlg2Y--18" parent="1" target="KGJQ8TFh_59FOnOlg2Y--5">
          <mxGeometry relative="1" as="geometry">
            <mxPoint x="270" y="520" as="targetPoint" />
          </mxGeometry>
        </mxCell>
        <mxCell id="KGJQ8TFh_59FOnOlg2Y--22" style="rounded=0;orthogonalLoop=1;jettySize=auto;html=1;exitX=0.5;exitY=0;exitDx=0;exitDy=0;entryX=0.5;entryY=1;entryDx=0;entryDy=0;endArrow=none;endFill=0;" edge="1" source="KGJQ8TFh_59FOnOlg2Y--19" parent="1" target="KGJQ8TFh_59FOnOlg2Y--5">
          <mxGeometry relative="1" as="geometry">
            <mxPoint x="270" y="520" as="targetPoint" />
          </mxGeometry>
        </mxCell>
        <mxCell id="KGJQ8TFh_59FOnOlg2Y--23" style="rounded=0;orthogonalLoop=1;jettySize=auto;html=1;exitX=0.5;exitY=0;exitDx=0;exitDy=0;entryX=0.5;entryY=1;entryDx=0;entryDy=0;endArrow=none;endFill=0;" edge="1" source="KGJQ8TFh_59FOnOlg2Y--26" parent="1" target="KGJQ8TFh_59FOnOlg2Y--5">
          <mxGeometry relative="1" as="geometry">
            <mxPoint x="270" y="520" as="targetPoint" />
          </mxGeometry>
        </mxCell>
        <mxCell id="KGJQ8TFh_59FOnOlg2Y--24" value="data" style="ellipse;whiteSpace=wrap;html=1;align=center;fillColor=#ffe6cc;strokeColor=#d79b00;" vertex="1" parent="1">
          <mxGeometry x="270" y="410" width="80" height="30" as="geometry" />
        </mxCell>
        <mxCell id="KGJQ8TFh_59FOnOlg2Y--26" value="&lt;span style=&quot;border-bottom: 1px dotted&quot;&gt;equipamento&lt;/span&gt;" style="ellipse;whiteSpace=wrap;html=1;align=center;fillColor=#d5e8d4;strokeColor=#82b366;" vertex="1" parent="1">
          <mxGeometry x="180" y="470" width="90" height="30" as="geometry" />
        </mxCell>
        <mxCell id="KGJQ8TFh_59FOnOlg2Y--27" style="rounded=0;orthogonalLoop=1;jettySize=auto;html=1;exitX=0.5;exitY=0;exitDx=0;exitDy=0;entryX=0.5;entryY=1;entryDx=0;entryDy=0;endArrow=none;endFill=0;" edge="1" parent="1" source="KGJQ8TFh_59FOnOlg2Y--20" target="KGJQ8TFh_59FOnOlg2Y--5">
          <mxGeometry relative="1" as="geometry">
            <mxPoint x="270" y="520" as="targetPoint" />
          </mxGeometry>
        </mxCell>
        <mxCell id="KGJQ8TFh_59FOnOlg2Y--28" style="rounded=0;orthogonalLoop=1;jettySize=auto;html=1;exitX=0.5;exitY=0;exitDx=0;exitDy=0;entryX=0.5;entryY=1;entryDx=0;entryDy=0;endArrow=none;endFill=0;" edge="1" parent="1" source="KGJQ8TFh_59FOnOlg2Y--24" target="KGJQ8TFh_59FOnOlg2Y--5">
          <mxGeometry relative="1" as="geometry">
            <mxPoint x="270" y="520" as="targetPoint" />
          </mxGeometry>
        </mxCell>
        <mxCell id="KGJQ8TFh_59FOnOlg2Y--29" value="id" style="ellipse;whiteSpace=wrap;html=1;align=center;fontStyle=4;fillColor=#dae8fc;strokeColor=#6c8ebf;" vertex="1" parent="1">
          <mxGeometry x="450" y="417.5" width="80" height="30" as="geometry" />
        </mxCell>
        <mxCell id="KGJQ8TFh_59FOnOlg2Y--30" value="equipamento" style="ellipse;whiteSpace=wrap;html=1;align=center;fillColor=#ffe6cc;strokeColor=#d79b00;" vertex="1" parent="1">
          <mxGeometry x="492" y="447.5" width="80" height="30" as="geometry" />
        </mxCell>
        <mxCell id="KGJQ8TFh_59FOnOlg2Y--31" value="imagem" style="ellipse;whiteSpace=wrap;html=1;align=center;fillColor=#ffe6cc;strokeColor=#d79b00;" vertex="1" parent="1">
          <mxGeometry x="542" y="477.5" width="80" height="30" as="geometry" />
        </mxCell>
        <mxCell id="KGJQ8TFh_59FOnOlg2Y--32" value="descricao" style="ellipse;whiteSpace=wrap;html=1;align=center;fillColor=#ffe6cc;strokeColor=#d79b00;" vertex="1" parent="1">
          <mxGeometry x="592" y="447.5" width="80" height="30" as="geometry" />
        </mxCell>
        <mxCell id="KGJQ8TFh_59FOnOlg2Y--33" value="ativo" style="ellipse;whiteSpace=wrap;html=1;align=center;fillColor=#ffe6cc;strokeColor=#d79b00;" vertex="1" parent="1">
          <mxGeometry x="632" y="417.5" width="80" height="30" as="geometry" />
        </mxCell>
        <mxCell id="KGJQ8TFh_59FOnOlg2Y--34" value="data" style="ellipse;whiteSpace=wrap;html=1;align=center;fillColor=#ffe6cc;strokeColor=#d79b00;" vertex="1" parent="1">
          <mxGeometry x="672" y="382.5" width="80" height="30" as="geometry" />
        </mxCell>
        <mxCell id="KGJQ8TFh_59FOnOlg2Y--35" style="rounded=0;orthogonalLoop=1;jettySize=auto;html=1;exitX=0.5;exitY=0;exitDx=0;exitDy=0;entryX=0.5;entryY=1;entryDx=0;entryDy=0;endArrow=none;endFill=0;" edge="1" parent="1" source="KGJQ8TFh_59FOnOlg2Y--29" target="KGJQ8TFh_59FOnOlg2Y--2">
          <mxGeometry relative="1" as="geometry">
            <mxPoint x="252" y="557.5" as="targetPoint" />
          </mxGeometry>
        </mxCell>
        <mxCell id="KGJQ8TFh_59FOnOlg2Y--36" style="rounded=0;orthogonalLoop=1;jettySize=auto;html=1;exitX=0.5;exitY=0;exitDx=0;exitDy=0;entryX=0.5;entryY=1;entryDx=0;entryDy=0;endArrow=none;endFill=0;" edge="1" parent="1" source="KGJQ8TFh_59FOnOlg2Y--30" target="KGJQ8TFh_59FOnOlg2Y--2">
          <mxGeometry relative="1" as="geometry">
            <mxPoint x="252" y="557.5" as="targetPoint" />
          </mxGeometry>
        </mxCell>
        <mxCell id="KGJQ8TFh_59FOnOlg2Y--37" style="rounded=0;orthogonalLoop=1;jettySize=auto;html=1;exitX=0.5;exitY=0;exitDx=0;exitDy=0;entryX=0.5;entryY=1;entryDx=0;entryDy=0;endArrow=none;endFill=0;" edge="1" parent="1" source="KGJQ8TFh_59FOnOlg2Y--31" target="KGJQ8TFh_59FOnOlg2Y--2">
          <mxGeometry relative="1" as="geometry">
            <mxPoint x="252" y="557.5" as="targetPoint" />
          </mxGeometry>
        </mxCell>
        <mxCell id="KGJQ8TFh_59FOnOlg2Y--38" style="rounded=0;orthogonalLoop=1;jettySize=auto;html=1;exitX=0.5;exitY=0;exitDx=0;exitDy=0;entryX=0.5;entryY=1;entryDx=0;entryDy=0;endArrow=none;endFill=0;" edge="1" parent="1" source="KGJQ8TFh_59FOnOlg2Y--32" target="KGJQ8TFh_59FOnOlg2Y--2">
          <mxGeometry relative="1" as="geometry">
            <mxPoint x="252" y="557.5" as="targetPoint" />
          </mxGeometry>
        </mxCell>
        <mxCell id="KGJQ8TFh_59FOnOlg2Y--39" style="rounded=0;orthogonalLoop=1;jettySize=auto;html=1;exitX=0.5;exitY=0;exitDx=0;exitDy=0;entryX=0.5;entryY=1;entryDx=0;entryDy=0;endArrow=none;endFill=0;" edge="1" parent="1" source="KGJQ8TFh_59FOnOlg2Y--33" target="KGJQ8TFh_59FOnOlg2Y--2">
          <mxGeometry relative="1" as="geometry">
            <mxPoint x="252" y="557.5" as="targetPoint" />
          </mxGeometry>
        </mxCell>
        <mxCell id="KGJQ8TFh_59FOnOlg2Y--40" style="rounded=0;orthogonalLoop=1;jettySize=auto;html=1;exitX=0.5;exitY=0;exitDx=0;exitDy=0;entryX=1;entryY=0.5;entryDx=0;entryDy=0;endArrow=none;endFill=0;" edge="1" parent="1" source="KGJQ8TFh_59FOnOlg2Y--34" target="KGJQ8TFh_59FOnOlg2Y--2">
          <mxGeometry relative="1" as="geometry">
            <mxPoint x="252" y="557.5" as="targetPoint" />
          </mxGeometry>
        </mxCell>
        <mxCell id="KGJQ8TFh_59FOnOlg2Y--41" value="possui" style="shape=rhombus;perimeter=rhombusPerimeter;whiteSpace=wrap;html=1;align=center;fillColor=#f8cecc;strokeColor=#b85450;" vertex="1" parent="1">
          <mxGeometry x="374" y="170" width="80" height="40" as="geometry" />
        </mxCell>
        <mxCell id="KGJQ8TFh_59FOnOlg2Y--42" value="faz" style="shape=rhombus;perimeter=rhombusPerimeter;whiteSpace=wrap;html=1;align=center;fillColor=#f8cecc;strokeColor=#b85450;" vertex="1" parent="1">
          <mxGeometry x="180" y="250" width="80" height="40" as="geometry" />
        </mxCell>
        <mxCell id="KGJQ8TFh_59FOnOlg2Y--43" value="recebe" style="shape=rhombus;perimeter=rhombusPerimeter;whiteSpace=wrap;html=1;align=center;fillColor=#f8cecc;strokeColor=#b85450;" vertex="1" parent="1">
          <mxGeometry x="374" y="342.5" width="80" height="40" as="geometry" />
        </mxCell>
        <mxCell id="KGJQ8TFh_59FOnOlg2Y--44" value="1" style="rounded=0;orthogonalLoop=1;jettySize=auto;html=1;exitX=0;exitY=0.5;exitDx=0;exitDy=0;entryX=1;entryY=0.5;entryDx=0;entryDy=0;endArrow=none;endFill=0;" edge="1" parent="1" source="KGJQ8TFh_59FOnOlg2Y--41" target="KGJQ8TFh_59FOnOlg2Y--4">
          <mxGeometry relative="1" as="geometry" />
        </mxCell>
        <mxCell id="KGJQ8TFh_59FOnOlg2Y--45" value="1" style="rounded=0;orthogonalLoop=1;jettySize=auto;html=1;exitX=0.5;exitY=0;exitDx=0;exitDy=0;entryX=0.5;entryY=1;entryDx=0;entryDy=0;endArrow=none;endFill=0;" edge="1" parent="1" source="KGJQ8TFh_59FOnOlg2Y--42" target="KGJQ8TFh_59FOnOlg2Y--4">
          <mxGeometry relative="1" as="geometry" />
        </mxCell>
        <mxCell id="KGJQ8TFh_59FOnOlg2Y--46" value="N" style="rounded=0;orthogonalLoop=1;jettySize=auto;html=1;exitX=0.5;exitY=0;exitDx=0;exitDy=0;endArrow=none;endFill=0;entryX=0.5;entryY=1;entryDx=0;entryDy=0;" edge="1" parent="1" source="KGJQ8TFh_59FOnOlg2Y--5" target="KGJQ8TFh_59FOnOlg2Y--42">
          <mxGeometry relative="1" as="geometry">
            <mxPoint x="220" y="300" as="targetPoint" />
          </mxGeometry>
        </mxCell>
        <mxCell id="KGJQ8TFh_59FOnOlg2Y--47" value="1" style="rounded=0;orthogonalLoop=1;jettySize=auto;html=1;exitX=0;exitY=0.5;exitDx=0;exitDy=0;endArrow=none;endFill=0;entryX=1;entryY=0.5;entryDx=0;entryDy=0;" edge="1" parent="1" source="KGJQ8TFh_59FOnOlg2Y--2" target="KGJQ8TFh_59FOnOlg2Y--43">
          <mxGeometry relative="1" as="geometry">
            <mxPoint x="260" y="330" as="targetPoint" />
          </mxGeometry>
        </mxCell>
        <mxCell id="KGJQ8TFh_59FOnOlg2Y--48" value="1" style="rounded=0;orthogonalLoop=1;jettySize=auto;html=1;exitX=0;exitY=0.5;exitDx=0;exitDy=0;endArrow=none;endFill=0;entryX=1;entryY=0.5;entryDx=0;entryDy=0;" edge="1" parent="1" source="KGJQ8TFh_59FOnOlg2Y--3" target="KGJQ8TFh_59FOnOlg2Y--41">
          <mxGeometry relative="1" as="geometry">
            <mxPoint x="260" y="290" as="targetPoint" />
          </mxGeometry>
        </mxCell>
        <mxCell id="KGJQ8TFh_59FOnOlg2Y--49" value="N" style="rounded=0;orthogonalLoop=1;jettySize=auto;html=1;exitX=0;exitY=0.5;exitDx=0;exitDy=0;endArrow=none;endFill=0;entryX=1;entryY=0.5;entryDx=0;entryDy=0;" edge="1" parent="1" source="KGJQ8TFh_59FOnOlg2Y--43" target="KGJQ8TFh_59FOnOlg2Y--5">
          <mxGeometry relative="1" as="geometry">
            <mxPoint x="260" y="330" as="targetPoint" />
          </mxGeometry>
        </mxCell>
      </root>
    </mxGraphModel>
  </diagram>
</mxfile>
